<?xml version="1.0" standalone="no"?>
<!DOCTYPE svg PUBLIC "-//W3C//DTD SVG 20010904//EN"
 "http://www.w3.org/TR/2001/REC-SVG-20010904/DTD/svg10.dtd">
<svg version="1.0" xmlns="http://www.w3.org/2000/svg"
 width="894.000000pt" height="681.000000pt" viewBox="0 0 894.000000 681.000000"
 preserveAspectRatio="xMidYMid meet">
<metadata>
Created by potrace 1.15, written by Peter Selinger 2001-2017
</metadata>
<g transform="translate(0.000000,681.000000) scale(0.100000,-0.100000)"
fill="#000000" stroke="none">
<path d="M0 3405 l0 -3405 4470 0 4470 0 0 3405 0 3405 -4470 0 -4470 0 0
-3405z m7729 2188 c7 -49 15 -105 18 -125 8 -51 -9 -49 -41 6 -65 112 -191
170 -316 146 -99 -19 -153 -82 -153 -181 0 -43 6 -67 25 -100 42 -71 89 -100
266 -160 174 -60 257 -122 304 -224 28 -64 31 -185 5 -262 -68 -197 -352 -281
-610 -179 -100 40 -110 41 -144 12 -17 -14 -34 -26 -37 -26 -3 0 -6 74 -6 165
0 136 2 165 14 165 8 0 20 -17 27 -37 37 -116 99 -189 199 -236 55 -26 76 -31
145 -31 71 -1 89 3 140 29 78 40 115 97 122 188 7 77 -8 126 -50 173 -36 42
-87 69 -244 130 -64 24 -133 55 -152 67 -111 68 -161 149 -161 261 0 97 16
143 70 197 89 89 241 119 404 80 81 -19 91 -20 112 -6 13 9 24 20 24 25 0 6 6
10 13 10 10 0 18 -27 26 -87z m-5705 71 c24 -9 20 -43 -6 -48 -115 -22 -143
-31 -185 -59 -68 -46 -101 -113 -114 -223 -13 -125 -8 -846 7 -851 45 -15 619
556 787 782 155 208 155 296 2 331 -86 19 -100 26 -100 50 0 18 14 19 405 18
399 -1 405 -2 408 -22 2 -16 -5 -23 -35 -32 -143 -47 -318 -170 -545 -383
-171 -161 -598 -593 -598 -605 0 -18 732 -866 914 -1059 141 -149 251 -212
410 -234 82 -11 106 -25 90 -50 -3 -5 -154 -9 -352 -9 l-347 1 -155 186 c-85
102 -169 202 -186 222 -331 386 -559 638 -609 677 -44 34 -96 31 -106 -6 -11
-38 -10 -612 1 -713 20 -194 109 -289 287 -306 71 -7 98 -20 90 -46 -3 -6
-181 -10 -508 -10 -492 0 -504 0 -504 19 0 16 12 22 71 32 112 19 164 56 204
147 37 84 41 189 38 1088 l-3 864 -22 41 c-44 82 -147 144 -239 144 -41 0 -64
9 -64 24 0 35 18 36 486 36 254 0 469 -3 478 -6z m1931 -14 c0 -10 -15 -17
-47 -22 -62 -8 -105 -40 -118 -86 -8 -25 -10 -184 -8 -487 3 -411 5 -453 21
-478 24 -37 59 -58 107 -64 25 -4 40 -11 40 -19 0 -20 -511 -16 -518 4 -2 8 7
12 27 12 49 0 99 26 121 62 19 32 20 49 20 499 0 463 0 466 -22 494 -23 30
-90 64 -125 65 -24 0 -38 15 -28 30 4 7 99 9 268 8 224 -3 262 -5 262 -18z
m814 -422 l394 -442 -6 367 c-7 397 -9 408 -63 444 -14 9 -47 22 -72 28 -28 7
-47 18 -47 26 0 11 37 15 198 17 184 2 198 1 195 -15 -2 -11 -17 -20 -44 -25
-50 -10 -83 -43 -95 -95 -5 -21 -9 -260 -9 -530 l0 -493 -37 0 c-34 1 -44 8
-97 68 -33 37 -91 103 -130 146 -39 43 -78 86 -86 96 -174 198 -596 660 -602
660 -8 0 -3 -502 7 -737 7 -162 28 -202 116 -223 30 -7 49 -17 49 -26 0 -12
-34 -14 -190 -14 -114 0 -190 4 -190 10 0 5 20 18 45 29 37 16 50 29 68 68 22
47 22 58 25 509 l4 461 -27 31 c-16 19 -40 34 -61 38 -19 3 -37 10 -40 15 -14
23 15 29 154 29 l147 0 394 -442z m1511 426 c35 -8 108 -38 162 -67 107 -56
120 -56 146 -4 7 15 20 27 28 27 11 0 14 -25 14 -145 0 -169 -7 -178 -63 -87
-92 146 -209 220 -383 242 -165 21 -312 -30 -407 -140 -155 -182 -187 -516
-69 -734 38 -70 121 -152 184 -181 124 -58 283 -60 393 -6 100 49 105 60 105
212 0 126 -1 129 -27 159 -22 23 -42 33 -88 42 -84 15 -85 16 -85 33 0 13 34
15 270 15 223 0 270 -2 270 -14 0 -14 -29 -26 -67 -26 -13 0 -37 -13 -55 -29
l-33 -29 -3 -145 -3 -144 -65 -42 c-271 -179 -693 -154 -900 53 -68 68 -113
149 -140 247 -23 86 -23 262 -1 346 58 221 219 362 472 418 83 19 265 18 345
-1z m639 -10 c52 -43 51 -134 -2 -208 -21 -30 -88 -65 -124 -66 -36 0 -27 19
17 36 37 15 80 55 80 75 0 5 -20 9 -45 9 -62 0 -95 32 -95 90 0 58 33 90 94
90 33 0 52 -6 75 -26z m-2608 -1361 c25 -11 62 -35 83 -54 38 -33 39 -33 68
-16 59 34 59 34 1 -150 -23 -74 -40 -113 -49 -113 -8 0 -14 3 -14 8 -7 158
-36 228 -114 277 -43 26 -59 30 -120 30 -61 0 -82 -5 -141 -34 -165 -81 -352
-334 -405 -551 -18 -71 -19 -204 -2 -253 31 -86 92 -127 190 -127 144 0 327
94 424 216 77 98 81 74 18 -108 -68 -195 -80 -212 -94 -128 -3 22 -13 43 -21
46 -8 3 -63 -11 -122 -32 -93 -32 -121 -38 -198 -38 -104 -1 -153 12 -217 54
-117 78 -155 237 -103 434 51 194 213 395 396 491 143 75 315 94 420 48z
m1301 2 c-2 -11 -96 -224 -208 -474 -112 -249 -204 -457 -204 -462 0 -22 29
-4 86 52 71 71 92 65 33 -9 -113 -142 -270 -181 -225 -55 16 44 104 241 282
629 68 150 124 276 124 282 0 11 -33 22 -67 22 -35 0 -27 18 10 25 41 6 115
12 147 11 19 -1 24 -6 22 -21z m368 12 c0 -7 -94 -223 -210 -479 -115 -257
-210 -469 -210 -472 0 -4 7 -6 16 -6 9 0 42 27 74 60 63 65 92 66 41 1 -72
-90 -151 -144 -204 -139 -27 3 -33 8 -35 32 -4 31 5 51 249 589 88 192 159
355 159 362 0 16 -22 25 -63 25 -57 0 -12 23 60 30 109 11 123 11 123 -3z
m-1002 -277 c45 -28 69 -72 82 -152 15 -87 6 -160 -30 -261 -93 -253 -308
-405 -460 -325 -67 36 -100 105 -100 212 0 159 57 306 161 420 80 87 157 126
248 126 48 0 75 -5 99 -20z m2287 7 c13 -11 16 -21 11 -42 -6 -24 -10 -26 -39
-21 -75 16 -109 18 -120 7 -7 -7 -12 -45 -12 -94 0 -67 -5 -92 -26 -137 -34
-72 -70 -114 -128 -148 -43 -25 -54 -27 -171 -29 -115 -1 -126 -3 -142 -23
-42 -52 -6 -103 128 -184 140 -84 178 -117 209 -179 22 -47 25 -59 16 -96 -23
-103 -144 -161 -338 -161 -169 0 -275 46 -315 137 -45 103 21 185 198 247 l64
23 -26 24 c-85 79 -68 172 40 223 59 28 64 36 41 76 -24 42 -19 138 10 197 31
62 99 127 163 156 64 29 183 31 230 2 31 -19 33 -19 63 -1 60 36 114 44 144
23z m-792 -19 c35 -18 46 -40 47 -86 1 -118 -100 -189 -348 -248 -59 -14 -115
-28 -126 -31 -40 -11 -83 -159 -66 -225 18 -63 49 -88 112 -88 65 0 118 24
180 79 44 39 68 51 68 33 0 -20 -124 -125 -175 -148 -144 -66 -264 -31 -296
89 -15 55 7 170 49 259 78 161 245 320 385 363 53 17 142 19 170 3z m1338 -17
c23 -23 29 -38 29 -71 0 -119 -112 -192 -389 -255 -57 -13 -108 -30 -113 -37
-15 -23 -48 -139 -48 -169 0 -16 6 -45 14 -63 40 -96 162 -89 288 15 51 43 58
46 58 25 0 -23 -111 -117 -167 -143 -65 -30 -148 -40 -196 -24 -204 68 -91
457 191 659 89 63 163 91 240 92 57 0 67 -3 93 -29z m-4957 -1151 c259 -81
398 -360 321 -649 -59 -224 -247 -361 -495 -361 -149 0 -266 46 -359 139 -69
69 -105 135 -131 237 -107 417 253 760 664 634z m2324 6 c194 -49 298 -155
336 -338 55 -267 -41 -500 -247 -601 -122 -59 -180 -67 -509 -67 -258 0 -298
2 -298 15 0 9 9 15 25 15 13 0 35 5 48 11 52 23 52 25 55 449 2 270 0 407 -8
432 -11 39 -49 68 -90 68 -14 0 -20 6 -20 21 l0 21 323 -5 c251 -4 336 -8 385
-21z m1165 -1 c217 -66 357 -259 357 -490 -1 -256 -141 -449 -371 -510 -70
-19 -210 -19 -282 0 -128 33 -247 124 -305 233 -170 321 -9 700 332 778 71 16
197 11 269 -11z m-4743 0 c0 -9 -9 -15 -25 -15 -39 0 -83 -27 -100 -60 -13
-24 -15 -89 -15 -414 0 -220 4 -395 10 -410 20 -53 49 -61 225 -61 143 1 166
3 217 23 73 29 139 95 176 173 15 32 33 59 40 59 15 0 16 13 -17 -160 l-27
-145 -450 -2 c-247 -2 -455 1 -463 6 -19 13 -4 31 26 31 37 0 80 29 98 66 13
27 15 93 15 413 0 463 1 460 -112 479 -23 4 -43 13 -46 20 -3 9 47 12 222 12
194 0 226 -2 226 -15z m2267 -372 l328 -387 3 259 c2 143 0 298 -3 344 -6 77
-10 88 -37 112 -18 18 -45 30 -73 35 -95 14 -38 24 135 24 171 0 228 -10 139
-24 -25 -4 -52 -17 -68 -34 l-28 -27 -6 -199 c-4 -110 -7 -320 -7 -468 l0
-268 -27 0 c-21 1 -38 14 -71 53 -23 29 -56 68 -72 87 -17 19 -169 198 -338
397 -169 199 -311 362 -315 362 -8 1 0 -717 9 -775 7 -48 40 -83 90 -95 24 -6
44 -15 44 -20 0 -5 -74 -9 -165 -9 -163 0 -201 8 -128 26 25 6 45 20 59 41 19
28 21 50 27 244 4 117 7 302 7 411 0 221 -7 253 -58 264 -45 10 -52 13 -52 24
0 6 50 10 139 10 l140 0 328 -387z m3493 3 c179 -212 329 -385 334 -385 12 -1
-2 647 -16 681 -11 29 -78 68 -116 68 -12 0 -22 5 -22 10 0 6 67 10 180 10
172 0 230 -10 136 -24 -50 -8 -82 -36 -96 -87 -6 -20 -10 -217 -10 -471 l0
-438 -28 0 c-23 0 -49 26 -172 171 -80 95 -150 177 -155 183 -6 6 -114 132
-240 281 l-230 269 -3 -282 c-1 -155 1 -338 6 -407 10 -141 22 -165 94 -187
21 -6 38 -15 38 -20 0 -4 -72 -8 -160 -8 -88 0 -160 4 -160 8 0 4 19 14 43 22
75 27 75 25 79 497 l3 412 -24 25 c-15 16 -35 26 -53 26 -18 0 -28 5 -28 15 0
13 22 15 138 15 l138 0 324 -384z m380 -1041 l0 -25 -3280 0 -3280 0 0 25 0
25 3280 0 3280 0 0 -25z m0 -235 l0 -70 -3280 0 -3280 0 0 70 0 70 3280 0
3280 0 0 -70z"/>
<path d="M4826 3969 c-134 -89 -285 -383 -286 -557 0 -68 29 -102 88 -102 124
0 323 267 373 500 34 161 -52 240 -175 159z"/>
<path d="M6889 3972 c-121 -78 -212 -289 -150 -351 42 -42 109 -23 177 51 73
80 114 166 116 246 1 83 -60 106 -143 54z"/>
<path d="M6572 3270 c-82 -41 -132 -98 -132 -149 0 -50 34 -99 90 -130 88 -49
274 -36 329 23 28 30 30 79 4 114 -27 37 -123 113 -182 145 l-48 27 -61 -30z"/>
<path d="M6302 3965 c-18 -8 -60 -40 -92 -71 -61 -58 -158 -189 -148 -200 11
-10 183 36 245 66 84 41 123 87 123 145 0 69 -51 93 -128 60z"/>
<path d="M7615 3961 c-79 -36 -275 -271 -227 -271 18 0 168 41 207 56 126 49
193 156 135 214 -25 25 -63 25 -115 1z"/>
<path d="M2611 2820 c-169 -35 -275 -212 -275 -460 0 -222 71 -381 205 -455
49 -27 63 -30 144 -30 73 0 100 5 140 23 123 56 186 168 206 365 17 164 -9
295 -81 406 -77 119 -209 178 -339 151z"/>
<path d="M4816 2820 c-78 -15 -76 -2 -76 -446 0 -443 1 -453 64 -479 46 -20
175 -19 251 0 206 54 306 207 306 470 1 162 -42 280 -128 355 -96 85 -275 128
-417 100z"/>
<path d="M6109 2817 c-133 -38 -213 -130 -255 -297 -23 -91 -15 -300 15 -384
31 -86 64 -138 121 -189 67 -60 130 -81 225 -75 119 8 216 71 265 174 76 157
78 420 5 571 -76 155 -235 240 -376 200z"/>
</g>
</svg>
