<?xml version="1.0" encoding="UTF-8" standalone="no"?>
<!-- Created with Inkscape (http://www.inkscape.org/) -->

<svg
   xmlns:dc="http://purl.org/dc/elements/1.1/"
   xmlns:cc="http://creativecommons.org/ns#"
   xmlns:rdf="http://www.w3.org/1999/02/22-rdf-syntax-ns#"
   xmlns:svg="http://www.w3.org/2000/svg"
   xmlns="http://www.w3.org/2000/svg"
   xmlns:sodipodi="http://sodipodi.sourceforge.net/DTD/sodipodi-0.dtd"
   xmlns:inkscape="http://www.inkscape.org/namespaces/inkscape"
   width="240"
   height="180"
   viewBox="0 0 240 180"
   id="svg2"
   version="1.1"
   inkscape:version="0.91 r13725"
   sodipodi:docname="kcl_logo_svg.svg">
  <defs
     id="defs4" />
  <sodipodi:namedview
     id="base"
     pagecolor="#ffffff"
     bordercolor="#666666"
     borderopacity="1.0"
     inkscape:pageopacity="0.0"
     inkscape:pageshadow="2"
     inkscape:zoom="1.979899"
     inkscape:cx="-126.85145"
     inkscape:cy="40.40734"
     inkscape:document-units="px"
     inkscape:current-layer="layer1"
     showgrid="false"
     units="px"
     inkscape:window-width="1600"
     inkscape:window-height="876"
     inkscape:window-x="0"
     inkscape:window-y="24"
     inkscape:window-maximized="1" />
  <metadata
     id="metadata7">
    <rdf:RDF>
      <cc:Work
         rdf:about="">
        <dc:format>image/svg+xml</dc:format>
        <dc:type
           rdf:resource="http://purl.org/dc/dcmitype/StillImage" />
        <dc:title></dc:title>
      </cc:Work>
    </rdf:RDF>
  </metadata>
  <g
     inkscape:label="Layer 1"
     inkscape:groupmode="layer"
     id="layer1"
     transform="translate(0,-872.36216)">
    <g
       id="g4194"
       transform="matrix(0.2147651,0,0,0.21145374,77.04698,813.54297)">
      <path
         id="path4142"
         d="m -358.75,703.7908 0,425.625 558.75,0 558.75,0 0,-425.625 0,-425.625 -558.75,0 -558.75,0 0,425.625 z m 966.125,-273.5 c 0.875,6.125 1.875,13.125 2.25,15.625 1,6.375 -1.125,6.125 -5.125,-0.75 -8.125,-14 -23.875,-21.25 -39.5,-18.25 -12.375,2.375 -19.125,10.25 -19.125,22.625 0,5.375 0.75,8.375 3.125,12.5 5.25,8.875 11.125,12.5 33.25,20 21.75,7.5 32.125,15.25 38,28 3.5,8 3.875,23.125 0.625,32.75 -8.5,24.625 -44,35.125 -76.25,22.375 -12.5,-5 -13.75,-5.125 -18,-1.5 -2.125,1.75 -4.25,3.25 -4.625,3.25 -0.375,0 -0.75,-9.25 -0.75,-20.625 0,-17 0.25,-20.625 1.75,-20.625 1,0 2.5,2.125 3.375,4.625 4.625,14.5 12.375,23.625 24.875,29.5 6.875,3.25 9.5,3.875 18.125,3.875 8.875,0.125 11.125,-0.375 17.5,-3.625 9.75,-5 14.375,-12.125 15.25,-23.5 0.875,-9.625 -1,-15.75 -6.25,-21.625 -4.5,-5.25 -10.875,-8.625 -30.5,-16.25 -8,-3 -16.625,-6.875 -19,-8.375 -13.875,-8.5 -20.125,-18.625 -20.125,-32.625 0,-12.125 2,-17.875 8.75,-24.625 11.125,-11.125 30.125,-14.875 50.5,-10 10.125,2.375 11.375,2.5 14,0.75 1.625,-1.125 3,-2.5 3,-3.125 0,-0.75 0.75,-1.25 1.625,-1.25 1.25,0 2.25,3.375 3.25,10.875 z m -713.125,-8.875 c 3,1.125 2.5,5.375 -0.75,6 -14.375,2.75 -17.875,3.875 -23.125,7.375 -8.5,5.75 -12.625,14.125 -14.25,27.875 -1.625,15.625 -1,105.75 0.875,106.375 5.625,1.875 77.375,-69.5 98.375,-97.75 19.375,-26 19.375,-37 0.25,-41.375 -10.75,-2.375 -12.5,-3.25 -12.5,-6.25 0,-2.25 1.75,-2.375 50.625,-2.25 49.875,0.125 50.625,0.25 51,2.75 0.25,2 -0.625,2.875 -4.375,4 -17.875,5.875 -39.75,21.25 -68.125,47.875 -21.375,20.125 -74.75,74.125 -74.75,75.625 0,2.25 91.5,108.25 114.25,132.375 17.625,18.625 31.375,26.5 51.25,29.25 10.25,1.375 13.25,3.125 11.25,6.25 -0.375,0.625 -19.25,1.125 -44,1.125 l -43.375,-0.125 -19.375,-23.25 c -10.625,-12.75 -21.125,-25.25 -23.25,-27.75 -41.375,-48.25 -69.875,-79.75 -76.125,-84.625 -5.5,-4.25 -12,-3.875 -13.25,0.75 -1.375,4.75 -1.25,76.5 0.125,89.125 2.5,24.25 13.625,36.125 35.875,38.25 8.875,0.875 12.25,2.5 11.25,5.75 -0.375,0.75 -22.625,1.25 -63.5,1.25 -61.5,0 -63,0 -63,-2.375 0,-2 1.5,-2.75 8.875,-4 14,-2.375 20.5,-7 25.5,-18.375 4.625,-10.5 5.125,-23.625 4.75,-136 l -0.375,-108 -2.75,-5.125 c -5.5,-10.25 -18.375,-18 -29.875,-18 -5.125,0 -8,-1.125 -8,-3 0,-4.375 2.25,-4.5 60.75,-4.5 31.75,0 58.625,0.375 59.75,0.75 z m 241.375,1.75 c 0,1.25 -1.875,2.125 -5.875,2.75 -7.75,1 -13.125,5 -14.75,10.75 -1,3.125 -1.25,23 -1,60.875 0.375,51.375 0.625,56.625 2.625,59.75 3,4.625 7.375,7.25 13.375,8 3.125,0.5 5,1.375 5,2.375 0,2.5 -63.875,2 -64.75,-0.5 -0.25,-1 0.875,-1.5 3.375,-1.5 6.125,0 12.375,-3.25 15.125,-7.75 2.375,-4 2.5,-6.125 2.5,-62.375 0,-57.875 0,-58.25 -2.75,-61.75 -2.875,-3.75 -11.25,-8 -15.625,-8.125 -3,0 -4.75,-1.875 -3.5,-3.75 0.5,-0.875 12.375,-1.125 33.5,-1 28,0.375 32.75,0.625 32.75,2.25 z m 101.75,52.75 49.25,55.25 -0.75,-45.875 c -0.875,-49.625 -1.125,-51 -7.875,-55.5 -1.75,-1.125 -5.875,-2.75 -9,-3.5 -3.5,-0.875 -5.875,-2.25 -5.875,-3.25 0,-1.375 4.625,-1.875 24.75,-2.125 23,-0.25 24.75,-0.125 24.375,1.875 -0.25,1.375 -2.125,2.5 -5.5,3.125 -6.25,1.25 -10.375,5.375 -11.875,11.875 -0.625,2.625 -1.125,32.5 -1.125,66.25 l 0,61.625 -4.625,0 c -4.25,-0.125 -5.5,-1 -12.125,-8.5 -4.125,-4.625 -11.375,-12.875 -16.25,-18.25 -4.875,-5.375 -9.75,-10.75 -10.75,-12 -21.75,-24.75 -74.5,-82.5 -75.25,-82.5 -1,0 -0.375,62.75 0.875,92.125 0.875,20.25 3.5,25.25 14.5,27.875 3.75,0.875 6.125,2.125 6.125,3.25 0,1.5 -4.25,1.75 -23.75,1.75 -14.25,0 -23.75,-0.5 -23.75,-1.25 0,-0.625 2.5,-2.25 5.625,-3.625 4.625,-2 6.25,-3.625 8.5,-8.5 2.75,-5.875 2.75,-7.25 3.125,-63.625 l 0.5,-57.625 -3.375,-3.875 c -2,-2.375 -5,-4.25 -7.625,-4.75 -2.375,-0.375 -4.625,-1.25 -5,-1.875 -1.75,-2.875 1.875,-3.625 19.25,-3.625 l 18.375,0 49.25,55.25 z m 188.875,-53.25 c 4.375,1 13.5,4.75 20.25,8.375 13.375,7 15,7 18.25,0.5 0.875,-1.875 2.5,-3.375 3.5,-3.375 1.375,0 1.75,3.125 1.75,18.125 0,21.125 -0.875,22.25 -7.875,10.875 -11.5,-18.25 -26.125,-27.5 -47.875,-30.25 -20.625,-2.625 -39,3.75 -50.875,17.5 -19.375,22.75 -23.375,64.5 -8.625,91.75 4.75,8.75 15.125,19 23,22.625 15.5,7.25 35.375,7.5 49.125,0.75 12.5,-6.125 13.125,-7.5 13.125,-26.5 0,-15.75 -0.125,-16.125 -3.375,-19.875 -2.75,-2.875 -5.25,-4.125 -11,-5.25 -10.5,-1.875 -10.625,-2 -10.625,-4.125 0,-1.625 4.25,-1.875 33.75,-1.875 27.875,0 33.75,0.25 33.75,1.75 0,1.75 -3.625,3.25 -8.375,3.25 -1.625,0 -4.625,1.625 -6.875,3.625 l -4.125,3.625 -0.375,18.125 -0.375,18 -8.125,5.25 c -33.875,22.375 -86.625,19.25 -112.5,-6.625 -8.5,-8.5 -14.125,-18.625 -17.5,-30.875 -2.875,-10.75 -2.875,-32.75 -0.125,-43.25 7.25,-27.625 27.375,-45.25 59,-52.25 10.375,-2.375 33.125,-2.25 43.125,0.125 z m 79.875,1.25 c 6.5,5.375 6.375,16.75 -0.25,26 -2.625,3.75 -11,8.125 -15.5,8.25 -4.5,0 -3.375,-2.375 2.125,-4.5 4.625,-1.875 10,-6.875 10,-9.375 0,-0.625 -2.5,-1.125 -5.625,-1.125 -7.75,0 -11.875,-4 -11.875,-11.25 0,-7.25 4.125,-11.25 11.75,-11.25 4.125,0 6.5,0.75 9.375,3.25 z m -326,170.125 c 3.125,1.375 7.75,4.375 10.375,6.75 4.75,4.125 4.875,4.125 8.5,2 7.375,-4.25 7.375,-4.25 0.125,18.75 -2.875,9.25 -5,14.125 -6.125,14.125 -1,0 -1.75,-0.375 -1.75,-1 -0.875,-19.75 -4.5,-28.5 -14.25,-34.625 -5.375,-3.25 -7.375,-3.75 -15,-3.75 -7.625,0 -10.25,0.625 -17.625,4.25 -20.625,10.125 -44,41.75 -50.625,68.875 -2.25,8.875 -2.375,25.5 -0.25,31.625 3.875,10.75 11.5,15.875 23.75,15.875 18,0 40.875,-11.75 53,-27 9.625,-12.25 10.125,-9.25 2.25,13.5 -8.5,24.375 -10,26.5 -11.75,16 -0.375,-2.75 -1.625,-5.375 -2.625,-5.75 -1,-0.375 -7.875,1.375 -15.25,4 -11.625,4 -15.125,4.75 -24.75,4.75 -13,0.125 -19.125,-1.5 -27.125,-6.75 -14.625,-9.75 -19.375,-29.625 -12.875,-54.25 6.375,-24.25 26.625,-49.375 49.5,-61.375 17.875,-9.375 39.375,-11.75 52.5,-6 z m 162.625,-0.25 c -0.25,1.375 -12,28 -26,59.25 -14,31.125 -25.5,57.125 -25.5,57.75 0,2.75 3.625,0.5 10.75,-6.5 8.875,-8.875 11.5,-8.125 4.125,1.125 -14.125,17.75 -33.75,22.625 -28.125,6.875 2,-5.5 13,-30.125 35.25,-78.625 8.5,-18.75 15.5,-34.5 15.5,-35.25 0,-1.375 -4.125,-2.75 -8.375,-2.75 -4.375,0 -3.375,-2.25 1.25,-3.125 5.125,-0.75 14.375,-1.5 18.375,-1.375 2.375,0.125 3,0.75 2.75,2.625 z m 46,-1.5 c 0,0.875 -11.75,27.875 -26.25,59.875 -14.375,32.125 -26.25,58.625 -26.25,59 0,0.5 0.875,0.75 2,0.75 1.125,0 5.25,-3.375 9.25,-7.5 7.875,-8.125 11.5,-8.25 5.125,-0.125 -9,11.25 -18.875,18 -25.5,17.375 -3.375,-0.375 -4.125,-1 -4.375,-4 -0.5,-3.875 0.625,-6.375 31.125,-73.625 11,-24 19.875,-44.375 19.875,-45.25 0,-2 -2.75,-3.125 -7.875,-3.125 -7.125,0 -1.5,-2.875 7.5,-3.75 13.625,-1.375 15.375,-1.375 15.375,0.375 z m -125.25,34.625 c 5.625,3.5 8.625,9 10.25,19 1.875,10.875 0.75,20 -3.75,32.625 -11.625,31.625 -38.5,50.625 -57.5,40.625 -8.375,-4.5 -12.5,-13.125 -12.5,-26.5 0,-19.875 7.125,-38.25 20.125,-52.5 10,-10.875 19.625,-15.75 31,-15.75 6,0 9.375,0.625 12.375,2.5 z m 285.875,-0.875 c 1.625,1.375 2,2.625 1.375,5.25 -0.75,3 -1.25,3.25 -4.875,2.625 -9.375,-2 -13.625,-2.25 -15,-0.875 -0.875,0.875 -1.5,5.625 -1.5,11.75 0,8.375 -0.625,11.5 -3.25,17.125 -4.25,9 -8.75,14.25 -16,18.5 -5.375,3.125 -6.75,3.375 -21.375,3.625 -14.375,0.125 -15.75,0.375 -17.75,2.875 -5.25,6.5 -0.75,12.875 16,23 17.5,10.5 22.25,14.625 26.125,22.375 2.75,5.875 3.125,7.375 2,12 -2.875,12.875 -18,20.125 -42.25,20.125 -21.125,0 -34.375,-5.75 -39.375,-17.125 -5.625,-12.875 2.625,-23.125 24.75,-30.875 l 8,-2.875 -3.25,-3 c -10.625,-9.875 -8.5,-21.5 5,-27.875 7.375,-3.5 8,-4.5 5.125,-9.5 -3,-5.25 -2.375,-17.25 1.25,-24.625 3.875,-7.75 12.375,-15.875 20.375,-19.5 8,-3.625 22.875,-3.875 28.75,-0.25 3.875,2.375 4.125,2.375 7.875,0.125 7.5,-4.5 14.25,-5.5 18,-2.875 z m -99,2.375 c 4.375,2.25 5.75,5 5.875,10.75 0.125,14.75 -12.5,23.625 -43.5,31 -7.375,1.75 -14.375,3.5 -15.75,3.875 -5,1.375 -10.375,19.875 -8.25,28.125 2.25,7.875 6.125,11 14,11 8.125,0 14.75,-3 22.5,-9.875 5.5,-4.875 8.5,-6.375 8.5,-4.125 0,2.5 -15.5,15.625 -21.875,18.5 -18,8.25 -33,3.875 -37,-11.125 -1.875,-6.875 0.875,-21.25 6.125,-32.375 9.75,-20.125 30.625,-40 48.125,-45.375 6.625,-2.125 17.75,-2.375 21.25,-0.375 z m 167.25,2.125 c 2.875,2.875 3.625,4.75 3.625,8.875 0,14.875 -14,24 -48.625,31.875 -7.125,1.625 -13.5,3.75 -14.125,4.625 -1.875,2.875 -6,17.375 -6,21.125 0,2 0.75,5.625 1.75,7.875 5,12 20.25,11.125 36,-1.875 6.375,-5.375 7.25,-5.75 7.25,-3.125 0,2.875 -13.875,14.625 -20.875,17.875 -8.125,3.75 -18.5,5 -24.5,3 -25.5,-8.5 -11.375,-57.125 23.875,-82.375 11.125,-7.875 20.375,-11.375 30,-11.5 7.125,0 8.375,0.375 11.625,3.625 z M -2,774.4158 c 32.375,10.125 49.75,45 40.125,81.125 -7.375,28 -30.875,45.125 -61.875,45.125 -18.625,0 -33.25,-5.75 -44.875,-17.375 -8.625,-8.625 -13.125,-16.875 -16.375,-29.625 -13.375,-52.125 31.625,-95 83,-79.25 z m 290.5,-0.75 c 24.25,6.125 37.25,19.375 42,42.25 6.875,33.375 -5.125,62.5 -30.875,75.125 -15.25,7.375 -22.5,8.375 -63.625,8.375 -32.25,0 -37.25,-0.25 -37.25,-1.875 0,-1.125 1.125,-1.875 3.125,-1.875 1.625,0 4.375,-0.625 6,-1.375 6.5,-2.875 6.5,-3.125 6.875,-56.125 0.25,-33.75 0,-50.875 -1,-54 -1.375,-4.875 -6.125,-8.5 -11.25,-8.5 -1.75,0 -2.5,-0.75 -2.5,-2.625 l 0,-2.625 40.375,0.625 c 31.375,0.5 42,1 48.125,2.625 z m 145.625,0.125 c 27.125,8.25 44.625,32.375 44.625,61.25 -0.125,32 -17.625,56.125 -46.375,63.75 -8.75,2.375 -26.25,2.375 -35.25,0 -16,-4.125 -30.875,-15.5 -38.125,-29.125 -21.25,-40.125 -1.125,-87.5 41.5,-97.25 8.875,-2 24.625,-1.375 33.625,1.375 z m -592.875,0 c 0,1.125 -1.125,1.875 -3.125,1.875 -4.875,0 -10.375,3.375 -12.5,7.5 -1.625,3 -1.875,11.125 -1.875,51.75 0,27.5 0.5,49.375 1.25,51.25 2.5,6.625 6.125,7.625 28.125,7.625 17.875,-0.125 20.75,-0.375 27.125,-2.875 9.125,-3.625 17.375,-11.875 22,-21.625 1.875,-4 4.125,-7.375 5,-7.375 1.875,0 2,-1.625 -2.125,20 l -3.375,18.125 -56.25,0.25 c -30.875,0.25 -56.875,-0.125 -57.875,-0.75 -2.375,-1.625 -0.5,-3.875 3.25,-3.875 4.625,0 10,-3.625 12.25,-8.25 1.625,-3.375 1.875,-11.625 1.875,-51.625 0,-57.875 0.125,-57.5 -14,-59.875 -2.875,-0.5 -5.375,-1.625 -5.75,-2.5 -0.375,-1.125 5.875,-1.5 27.75,-1.5 24.25,0 28.25,0.25 28.25,1.875 z m 283.375,46.5 41,48.375 0.375,-32.375 c 0.25,-17.875 0,-37.25 -0.375,-43 -0.75,-9.625 -1.25,-11 -4.625,-14 -2.25,-2.25 -5.625,-3.75 -9.125,-4.375 -11.875,-1.75 -4.75,-3 16.875,-3 21.375,0 28.5,1.25 17.375,3 -3.125,0.5 -6.5,2.125 -8.5,4.25 l -3.5,3.375 -0.75,24.875 c -0.5,13.75 -0.875,40 -0.875,58.5 l 0,33.5 -3.375,0 c -2.625,-0.125 -4.75,-1.75 -8.875,-6.625 -2.875,-3.625 -7,-8.5 -9,-10.875 -2.125,-2.375 -21.125,-24.75 -42.25,-49.625 -21.125,-24.875 -38.875,-45.25 -39.375,-45.25 -1,-0.125 0,89.625 1.125,96.875 0.875,6 5,10.375 11.25,11.875 3,0.75 5.5,1.875 5.5,2.5 0,0.625 -9.25,1.125 -20.625,1.125 -20.375,0 -25.125,-1 -16,-3.25 3.125,-0.75 5.625,-2.5 7.375,-5.125 2.375,-3.5 2.625,-6.25 3.375,-30.5 0.5,-14.625 0.875,-37.75 0.875,-51.375 0,-27.625 -0.875,-31.625 -7.25,-33 -5.625,-1.25 -6.5,-1.625 -6.5,-3 0,-0.75 6.25,-1.25 17.375,-1.25 l 17.5,0 41,48.375 z m 436.625,-0.375 c 22.375,26.5 41.125,48.125 41.75,48.125 1.5,0.125 -0.25,-80.875 -2,-85.125 -1.375,-3.625 -9.75,-8.5 -14.5,-8.5 -1.5,0 -2.75,-0.625 -2.75,-1.25 0,-0.75 8.375,-1.25 22.5,-1.25 21.5,0 28.75,1.25 17,3 -6.25,1 -10.25,4.5 -12,10.875 -0.75,2.5 -1.25,27.125 -1.25,58.875 l 0,54.75 -3.5,0 c -2.875,0 -6.125,-3.25 -21.5,-21.375 -10,-11.875 -18.75,-22.125 -19.375,-22.875 -0.75,-0.75 -14.25,-16.5 -30,-35.125 l -28.75,-33.625 -0.375,35.25 c -0.125,19.375 0.125,42.25 0.75,50.875 1.25,17.625 2.75,20.625 11.75,23.375 2.625,0.75 4.75,1.875 4.75,2.5 0,0.5 -9,1 -20,1 -11,0 -20,-0.5 -20,-1 0,-0.5 2.375,-1.75 5.375,-2.75 9.375,-3.375 9.375,-3.125 9.875,-62.125 l 0.375,-51.5 -3,-3.125 c -1.875,-2 -4.375,-3.25 -6.625,-3.25 -2.25,0 -3.5,-0.625 -3.5,-1.875 0,-1.625 2.75,-1.875 17.25,-1.875 l 17.25,0 40.5,48 z m 47.5,130.125 0,3.125 -410,0 -410,0 0,-3.125 0,-3.125 410,0 410,0 0,3.125 z m 0,29.375 0,8.75 -410,0 -410,0 0,-8.75 0,-8.75 410,0 410,0 0,8.75 z"
         inkscape:connector-curvature="0"
         style="fill:#ee2d24;fill-opacity:1;stroke:none" />
      <path
         id="path4144"
         d="m 244.5,633.2908 c -16.75,11.125 -35.625,47.875 -35.75,69.625 0,8.5 3.625,12.75 11,12.75 15.5,0 40.375,-33.375 46.625,-62.5 4.25,-20.125 -6.5,-30 -21.875,-19.875 z"
         inkscape:connector-curvature="0"
         style="fill:#ee2d24;fill-opacity:1;stroke:none" />
      <path
         id="path4146"
         d="m 502.375,632.9158 c -15.125,9.75 -26.5,36.125 -18.75,43.875 5.25,5.25 13.625,2.875 22.125,-6.375 9.125,-10 14.25,-20.75 14.5,-30.75 0.125,-10.375 -7.5,-13.25 -17.875,-6.75 z"
         inkscape:connector-curvature="0"
         style="fill:#ee2d24;fill-opacity:1;stroke:none" />
      <path
         id="path4148"
         d="m 462.75,720.6658 c -10.25,5.125 -16.5,12.25 -16.5,18.625 0,6.25 4.25,12.375 11.25,16.25 11,6.125 34.25,4.5 41.125,-2.875 3.5,-3.75 3.75,-9.875 0.5,-14.25 -3.375,-4.625 -15.375,-14.125 -22.75,-18.125 l -6,-3.375 -7.625,3.75 z"
         inkscape:connector-curvature="0"
         style="fill:#ee2d24;fill-opacity:1;stroke:none" />
      <path
         id="path4150"
         d="m 429,633.7908 c -2.25,1 -7.5,5 -11.5,8.875 -7.625,7.25 -19.75,23.625 -18.5,25 1.375,1.25 22.875,-4.5 30.625,-8.25 10.5,-5.125 15.375,-10.875 15.375,-18.125 0,-8.625 -6.375,-11.625 -16,-7.5 z"
         inkscape:connector-curvature="0"
         style="fill:#ee2d24;fill-opacity:1;stroke:none" />
      <path
         id="path4152"
         d="m 593.125,634.2908 c -9.875,4.5 -34.375,33.875 -28.375,33.875 2.25,0 21,-5.125 25.875,-7 15.75,-6.125 24.125,-19.5 16.875,-26.75 -3.125,-3.125 -7.875,-3.125 -14.375,-0.125 z"
         inkscape:connector-curvature="0"
         style="fill:#ee2d24;fill-opacity:1;stroke:none" />
      <path
         id="path4154"
         d="m -32.375,776.9158 c -21.125,4.375 -34.375,26.5 -34.375,57.5 0,27.75 8.875,47.625 25.625,56.875 6.125,3.375 7.875,3.75 18,3.75 9.125,0 12.5,-0.625 17.5,-2.875 15.375,-7 23.25,-21 25.75,-45.625 2.125,-20.5 -1.125,-36.875 -10.125,-50.75 -9.625,-14.875 -26.125,-22.25 -42.375,-18.875 z"
         inkscape:connector-curvature="0"
         style="fill:#ee2d24;fill-opacity:1;stroke:none" />
      <path
         id="path4156"
         d="m 243.25,776.9158 c -9.75,1.875 -9.5,0.25 -9.5,55.75 0,55.375 0.125,56.625 8,59.875 5.75,2.5 21.875,2.375 31.375,0 25.75,-6.75 38.25,-25.875 38.25,-58.75 0.125,-20.25 -5.25,-35 -16,-44.375 -12,-10.625 -34.375,-16 -52.125,-12.5 z"
         inkscape:connector-curvature="0"
         style="fill:#ee2d24;fill-opacity:1;stroke:none" />
      <path
         id="path4158"
         d="m 404.875,777.2908 c -16.625,4.75 -26.625,16.25 -31.875,37.125 -2.875,11.375 -1.875,37.5 1.875,48 3.875,10.75 8,17.25 15.125,23.625 8.375,7.5 16.25,10.125 28.125,9.375 14.875,-1 27,-8.875 33.125,-21.75 9.5,-19.625 9.75,-52.5 0.625,-71.375 -9.5,-19.375 -29.375,-30 -47,-25 z"
         inkscape:connector-curvature="0"
         style="fill:#ee2d24;fill-opacity:1;stroke:none" />
    </g>
  </g>
</svg>
